<?xml version="1.0" encoding="utf-8"?>
<!-- Generator: Adobe Illustrator 16.0.0, SVG Export Plug-In . SVG Version: 6.00 Build 0)  -->
<!DOCTYPE svg PUBLIC "-//W3C//DTD SVG 1.1//EN" "http://www.w3.org/Graphics/SVG/1.1/DTD/svg11.dtd">
<svg version="1.1" id="Layer_1" xmlns="http://www.w3.org/2000/svg" xmlns:xlink="http://www.w3.org/1999/xlink" x="0px" y="0px"
	 width="64px" height="64px" viewBox="0 0 64 64" enable-background="new 0 0 64 64" xml:space="preserve">
<g>
	<defs>
		<rect id="SVGID_1_" width="64" height="64"/>
	</defs>
	<clipPath id="SVGID_2_">
		<use xlink:href="#SVGID_1_"  overflow="visible"/>
	</clipPath>
	<g clip-path="url(#SVGID_2_)">
		<defs>
			<rect id="SVGID_3_" width="64" height="64"/>
		</defs>
		<clipPath id="SVGID_4_">
			<use xlink:href="#SVGID_3_"  overflow="visible"/>
		</clipPath>
		<path clip-path="url(#SVGID_4_)" fill="#76C2AF" d="M64,32c0,17.673-14.327,32-32,32S0,49.673,0,32S14.327,0,32,0S64,14.327,64,32
			"/>
		<g opacity="0.2" clip-path="url(#SVGID_4_)">
			<g>
				<defs>
					<rect id="SVGID_5_" x="8.459" y="24" width="47.081" height="20.001"/>
				</defs>
				<clipPath id="SVGID_6_">
					<use xlink:href="#SVGID_5_"  overflow="visible"/>
				</clipPath>
				<path clip-path="url(#SVGID_6_)" fill="#231F20" d="M42.461,44.001c-0.671,0-1.325-0.339-1.704-0.951
					c-0.579-0.94-0.287-2.172,0.652-2.752l10.124-6.242c0.005-0.018,0.007-0.036,0.007-0.055c0-0.021-0.002-0.039-0.007-0.057
					l-10.124-6.242c-0.939-0.58-1.231-1.812-0.652-2.752s1.812-1.233,2.753-0.653l10.63,6.554l0.165,0.165
					c0.797,0.797,1.235,1.855,1.235,2.984c0,1.126-0.438,2.186-1.235,2.981l-0.165,0.166l-10.63,6.554
					C43.183,43.904,42.819,44.001,42.461,44.001"/>
				<path clip-path="url(#SVGID_6_)" fill="#231F20" d="M21.539,44.001c-0.358,0-0.721-0.097-1.048-0.299l-10.63-6.554l-0.165-0.166
					c-0.797-0.796-1.236-1.855-1.236-2.981c0-1.129,0.439-2.188,1.236-2.984l0.165-0.165l10.63-6.554
					c0.941-0.58,2.172-0.287,2.753,0.653c0.579,0.94,0.287,2.172-0.653,2.752l-10.124,6.242c-0.005,0.018-0.007,0.036-0.007,0.057
					c0,0.019,0.002,0.037,0.007,0.055l10.124,6.242c0.94,0.58,1.232,1.812,0.653,2.752C22.866,43.662,22.209,44.001,21.539,44.001"
					/>
			</g>
		</g>
		<g opacity="0.2" clip-path="url(#SVGID_4_)">
			<g>
				<defs>
					<rect id="SVGID_7_" x="23.5" y="14.999" width="17.001" height="38.002"/>
				</defs>
				<clipPath id="SVGID_8_">
					<use xlink:href="#SVGID_7_"  overflow="visible"/>
				</clipPath>
				<path clip-path="url(#SVGID_8_)" fill="#231F20" d="M25.5,53.001c-0.237,0-0.479-0.042-0.714-0.133
					c-1.032-0.395-1.548-1.551-1.154-2.583l13-34c0.395-1.032,1.551-1.549,2.583-1.154c1.031,0.395,1.548,1.551,1.153,2.583l-13,34
					C27.063,52.512,26.305,53.001,25.5,53.001"/>
			</g>
		</g>
		<path clip-path="url(#SVGID_4_)" fill="#FFFFFF" d="M42.461,42c-0.671,0-1.326-0.337-1.704-0.95
			c-0.579-0.94-0.287-2.173,0.653-2.752l10.122-6.241c0.011-0.037,0.011-0.077,0-0.114L41.41,25.702
			c-0.94-0.579-1.232-1.811-0.653-2.752c0.579-0.94,1.811-1.233,2.752-0.652l10.631,6.554l0.166,0.165
			c1.644,1.645,1.644,4.321,0,5.966l-0.166,0.165l-10.631,6.554C43.183,41.904,42.819,42,42.461,42"/>
		<path clip-path="url(#SVGID_4_)" fill="#FFFFFF" d="M21.539,42c-0.358,0-0.72-0.096-1.047-0.298L9.861,35.148l-0.166-0.165
			c-1.644-1.646-1.644-4.321,0-5.966l0.166-0.165l10.631-6.554c0.939-0.581,2.172-0.288,2.752,0.652
			c0.579,0.941,0.287,2.173-0.654,2.752l-10.122,6.241c-0.011,0.037-0.011,0.077,0,0.114l10.122,6.241
			c0.941,0.579,1.233,1.812,0.654,2.752C22.866,41.663,22.209,42,21.539,42"/>
		<path clip-path="url(#SVGID_4_)" fill="#FFFFFF" d="M25.5,51.001c-0.237,0-0.479-0.043-0.714-0.133
			c-1.032-0.395-1.548-1.551-1.154-2.582l13-34c0.395-1.031,1.551-1.55,2.583-1.154c1.031,0.394,1.548,1.551,1.153,2.582l-13,34
			C27.063,50.511,26.305,51.001,25.5,51.001"/>
	</g>
</g>
</svg>
